<svg id="Component_7_2" data-name="Component 7 – 2" xmlns="http://www.w3.org/2000/svg" width="118" height="118" viewBox="0 0 118 118">
  <path id="Subtraction_1" data-name="Subtraction 1" d="M-2008-943a58.772,58.772,0,0,1-20.872-3.8c.062-.058.127-.12.2-.192l23.833-24.374,11.012,26.651A59.263,59.263,0,0,1-2008-943Zm-29-7.607h0v0a59.313,59.313,0,0,1-21.715-21.226,58.7,58.7,0,0,1-6.115-14.259A59.123,59.123,0,0,1-2067-1002a59.126,59.126,0,0,1,2.169-15.906,58.707,58.707,0,0,1,6.115-14.259A59.317,59.317,0,0,1-2037-1053.393Zm65.293-4.873h0L-1983.071-983h29.173a4.692,4.692,0,0,0,1.906-.4,58.75,58.75,0,0,1-7.845,15.487,59.29,59.29,0,0,1-11.869,12.433Zm21.689-35.551v0a5.068,5.068,0,0,0-.441-.486l-67.171-68.7A59.618,59.618,0,0,1-2008-1061a58.628,58.628,0,0,1,22.965,4.637,58.8,58.8,0,0,1,18.754,12.644,58.8,58.8,0,0,1,12.644,18.754A58.635,58.635,0,0,1-1949-1002a59.482,59.482,0,0,1-1.017,10.966Z" transform="translate(2067 1061)" fill="#fff"/>
</svg>
